<mxfile host="app.diagrams.net" agent="Mozilla/5.0 (Macintosh; Intel Mac OS X 10_15_7) AppleWebKit/537.36 (KHTML, like Gecko) Chrome/131.0.0.0 Safari/537.36" version="26.0.4">
  <diagram name="Page-1" id="5HZdJz2moyTFa33PhYxD">
    <mxGraphModel dx="1242" dy="785" grid="1" gridSize="10" guides="1" tooltips="1" connect="1" arrows="1" fold="1" page="1" pageScale="1" pageWidth="850" pageHeight="1100" math="0" shadow="0">
      <root>
        <mxCell id="0" />
        <mxCell id="1" parent="0" />
        <mxCell id="VHHmFpENQBz-ZfLlpOT_-1" value="" style="rounded=0;whiteSpace=wrap;html=1;" parent="1" vertex="1">
          <mxGeometry x="40" y="160" width="720" height="510" as="geometry" />
        </mxCell>
        <mxCell id="VHHmFpENQBz-ZfLlpOT_-2" value="" style="rounded=0;whiteSpace=wrap;html=1;" parent="1" vertex="1">
          <mxGeometry x="40" y="160" width="720" height="40" as="geometry" />
        </mxCell>
        <mxCell id="VHHmFpENQBz-ZfLlpOT_-4" value="&lt;span style=&quot;font-size: 10px;&quot;&gt;login&lt;/span&gt;" style="ellipse;whiteSpace=wrap;html=1;aspect=fixed;" parent="1" vertex="1">
          <mxGeometry x="710" y="166.25" width="27.5" height="27.5" as="geometry" />
        </mxCell>
        <mxCell id="VHHmFpENQBz-ZfLlpOT_-12" value="Home" style="rounded=1;whiteSpace=wrap;html=1;" parent="1" vertex="1">
          <mxGeometry x="60" y="168.75" width="50" height="22.5" as="geometry" />
        </mxCell>
        <mxCell id="VHHmFpENQBz-ZfLlpOT_-13" value="Play" style="rounded=1;whiteSpace=wrap;html=1;" parent="1" vertex="1">
          <mxGeometry x="130" y="168.75" width="50" height="22.5" as="geometry" />
        </mxCell>
        <mxCell id="VHHmFpENQBz-ZfLlpOT_-14" value="Host" style="rounded=1;whiteSpace=wrap;html=1;" parent="1" vertex="1">
          <mxGeometry x="200" y="168.75" width="50" height="22.5" as="geometry" />
        </mxCell>
        <mxCell id="EWYc85PjEN9m_NPapymb-18" value="" style="rounded=0;whiteSpace=wrap;html=1;" parent="1" vertex="1">
          <mxGeometry x="740" y="260" width="20" height="410" as="geometry" />
        </mxCell>
        <mxCell id="EWYc85PjEN9m_NPapymb-19" value="" style="rounded=1;whiteSpace=wrap;html=1;" parent="1" vertex="1">
          <mxGeometry x="745" y="420" width="10" height="60" as="geometry" />
        </mxCell>
        <mxCell id="b7qB9sQMEJ5np5iub71P-1" value="Events" style="rounded=1;whiteSpace=wrap;html=1;" vertex="1" parent="1">
          <mxGeometry x="80" y="220" width="80" height="40" as="geometry" />
        </mxCell>
        <mxCell id="b7qB9sQMEJ5np5iub71P-2" value="" style="rounded=0;whiteSpace=wrap;html=1;" vertex="1" parent="1">
          <mxGeometry x="80" y="300" width="150" height="240" as="geometry" />
        </mxCell>
        <mxCell id="b7qB9sQMEJ5np5iub71P-3" value="Attend Button" style="rounded=1;whiteSpace=wrap;html=1;" vertex="1" parent="1">
          <mxGeometry x="80" y="570" width="620" height="60" as="geometry" />
        </mxCell>
        <mxCell id="b7qB9sQMEJ5np5iub71P-4" value="Image" style="rounded=0;whiteSpace=wrap;html=1;" vertex="1" parent="1">
          <mxGeometry x="260" y="300" width="440" height="160" as="geometry" />
        </mxCell>
        <mxCell id="b7qB9sQMEJ5np5iub71P-5" value="Description" style="rounded=0;whiteSpace=wrap;html=1;" vertex="1" parent="1">
          <mxGeometry x="260" y="480" width="440" height="60" as="geometry" />
        </mxCell>
        <mxCell id="b7qB9sQMEJ5np5iub71P-6" value="Host" style="rounded=1;whiteSpace=wrap;html=1;" vertex="1" parent="1">
          <mxGeometry x="260" y="220" width="90" height="40" as="geometry" />
        </mxCell>
        <mxCell id="b7qB9sQMEJ5np5iub71P-7" value="Title" style="rounded=0;whiteSpace=wrap;html=1;" vertex="1" parent="1">
          <mxGeometry x="80" y="300" width="150" height="60" as="geometry" />
        </mxCell>
        <mxCell id="b7qB9sQMEJ5np5iub71P-8" value="Attendees" style="rounded=0;whiteSpace=wrap;html=1;" vertex="1" parent="1">
          <mxGeometry x="80" y="360" width="150" height="60" as="geometry" />
        </mxCell>
        <mxCell id="b7qB9sQMEJ5np5iub71P-9" value="Date &amp;amp; Time" style="rounded=0;whiteSpace=wrap;html=1;" vertex="1" parent="1">
          <mxGeometry x="80" y="420" width="150" height="60" as="geometry" />
        </mxCell>
        <mxCell id="b7qB9sQMEJ5np5iub71P-11" value="Address" style="text;html=1;align=center;verticalAlign=middle;whiteSpace=wrap;rounded=0;" vertex="1" parent="1">
          <mxGeometry x="125" y="495" width="60" height="30" as="geometry" />
        </mxCell>
      </root>
    </mxGraphModel>
  </diagram>
</mxfile>
